<?xml version="1.0" encoding="utf-8"?>
<!-- Generator: Adobe Illustrator 18.1.1, SVG Export Plug-In . SVG Version: 6.00 Build 0)  -->
<svg version="1.1" id="Archive" xmlns="http://www.w3.org/2000/svg" xmlns:xlink="http://www.w3.org/1999/xlink" x="0px" y="0px"
	 viewBox="0 0 566.9 566.9" enable-background="new 0 0 566.9 566.9" xml:space="preserve">
<path fill="#FFFFFF" d="M396.3,56.7H170.6c0,0-28.2,0-28.2,28.3h282.2C424.5,56.7,396.3,56.7,396.3,56.7z M481,141.7
	c0-28.3-28.2-28.3-28.2-28.3H114.2c0,0-28.2,0-28.2,28.3v28.3h395V141.7z M537.4,170.1c-16.7-16.8-16.7-16.8-16.7-16.8v45.1H46.2
	v-45.1c0,0,0,0-16.7,16.8S0.9,191.3,7.6,226.8c6.7,35.3,39.1,228.9,43.9,255.1c5.3,28.7,34.5,28.3,34.5,28.3h395
	c0,0,29.2,0.4,34.5-28.3c4.8-26.2,37.2-219.8,43.9-255.1C566.1,191.3,554.1,186.9,537.4,170.1z M396.9,340.1
	c0,15.7-12.7,28.4-28.4,28.4H198.5c-15.7,0-28.4-12.7-28.4-28.4v-56.6h28.3v56.7h170.1v-56.7h28.3V340.1z"/>
</svg>
