<?xml version="1.0" encoding="utf-8"?>
<!-- Generator: Adobe Illustrator 18.1.1, SVG Export Plug-In . SVG Version: 6.00 Build 0)  -->
<svg version="1.1" id="Book" xmlns="http://www.w3.org/2000/svg" xmlns:xlink="http://www.w3.org/1999/xlink" x="0px" y="0px"
	 viewBox="0 0 566.9 566.9" enable-background="new 0 0 566.9 566.9" xml:space="preserve">
<path fill="#FFFFFF" d="M481.9,168.7v293.4c0,14.8-12.8,21.9-28.3,32.9c-12.5,8.9-28.3-2.1-28.3-16.6c0,0,0-280.8,0-286.7
	c0-6-2.1-11.7-8.9-15.2C409.5,173,197,61.2,197,61.2c-3.4-1.3-18.4-10.7-38.4-0.5c-19,9.8-29.3,20.4-31.9,25.3l231.9,127
	c6.2,3.2,9.9,8.2,9.9,14.6V534c0,6.5-4,13.5-10.5,16.6c-2.9,1.5-6.2,2.2-9.4,2.2c-3.8,0-7.7-0.9-10.9-2.9
	c-6.1-3.7-220.4-135.1-234.5-143.6c-6.8-4.1-14.8-12.4-14.9-18.7L85,96c0-5.6-0.7-15.5,8.2-29.3C113,36,181.9,1,216.8,19.1
	l255.1,129.1C478.1,151.4,481.9,157.8,481.9,168.7z"/>
</svg>
