<?xml version="1.0" encoding="utf-8"?>
<!-- Generator: Adobe Illustrator 18.1.1, SVG Export Plug-In . SVG Version: 6.00 Build 0)  -->
<svg version="1.1" id="Clock" xmlns="http://www.w3.org/2000/svg" xmlns:xlink="http://www.w3.org/1999/xlink" x="0px" y="0px"
	 viewBox="0 0 566.9 566.9" enable-background="new 0 0 566.9 566.9" xml:space="preserve">
<path fill="#FFFFFF" d="M283.5,11.3c-150.3,0-272.2,121.8-272.2,272.1c0,150.3,121.8,272.2,272.2,272.2
	c150.3,0,272.1-121.8,272.1-272.2C555.6,133.2,433.7,11.3,283.5,11.3z M283.4,498.9c-119,0-215.4-96.4-215.4-215.4
	C68,164.5,164.4,68,283.4,68c119,0,215.5,96.4,215.5,215.4C498.9,402.4,402.4,498.9,283.4,498.9z M311.8,264.5V113.4h-56.7v177
	l-100.5,58.1l28.3,49.1l116.6-67.4c6.7-3.9,12.2-13.4,12.2-21.2v-4.8L432,186.1c-5.6-7.7-11.7-15-18.3-21.7L311.8,264.5z"/>
</svg>
