<?xml version="1.0" encoding="utf-8"?>
<!-- Generator: Adobe Illustrator 18.1.1, SVG Export Plug-In . SVG Version: 6.00 Build 0)  -->
<svg version="1.1" id="Info" xmlns="http://www.w3.org/2000/svg" xmlns:xlink="http://www.w3.org/1999/xlink" x="0px" y="0px"
	 viewBox="0 0 566.9 566.9" enable-background="new 0 0 566.9 566.9" xml:space="preserve">
<path fill="#FFFFFF" d="M352.4,0c38,0,57,25.9,57,55.5c0,37-33,71.2-75.9,71.2c-36,0-56.9-21.3-56-56.4C277.5,40.7,302.5,0,352.4,0z
	 M235.5,566.9c-30,0-52-18.5-31-99.9L239,322.7c6-23.1,7-32.3,0-32.3c-9,0-47.9,15.9-70.9,31.7l-15-24.9
	c72.9-62,156.8-98.3,192.8-98.3c30,0,35,36.1,20,91.6l-39.4,151.7c-7,26.8-4,36,3,36c9,0,38.5-11.1,67.4-34.2l17,23.1
	C342.9,539.2,265.5,566.9,235.5,566.9z"/>
</svg>
