<?xml version="1.0" encoding="utf-8"?>
<!-- Generator: Adobe Illustrator 18.1.1, SVG Export Plug-In . SVG Version: 6.00 Build 0)  -->
<svg version="1.1" id="Paper_plane" xmlns="http://www.w3.org/2000/svg" xmlns:xlink="http://www.w3.org/1999/xlink" x="0px"
	 y="0px" viewBox="0 0 566.9 566.9" enable-background="new 0 0 566.9 566.9" xml:space="preserve">
<path fill="#FFFFFF" d="M528.4,74.7c-9.8,3.4-491,173-500.5,176.4c-8.1,2.8-9.8,9.8-0.3,13.6c11.4,4.6,107.6,43.1,107.6,43.1l0,0
	l63.8,25.5c0,0,307.2-225.6,311.4-228.6c4.2-3.1,9,2.7,6,6c-3,3.3-223.1,241.3-223.1,241.3v0.1l-12.8,14.3l17,9.1l0,0
	c0,0,131.8,71,141.2,76c8.2,4.4,18.9,0.8,21.3-9.5c2.8-12.1,80.6-347.6,82.4-355C544.5,77.2,538.1,71.2,528.4,74.7z M198.4,486.5
	c0,7,3.9,8.9,9.4,4c7.1-6.5,80.8-72.6,80.8-72.6l-90.2-46.6V486.5z"/>
</svg>
