<?xml version="1.0" encoding="utf-8"?>
<!-- Generator: Adobe Illustrator 18.1.1, SVG Export Plug-In . SVG Version: 6.00 Build 0)  -->
<svg version="1.1" id="Pencil" xmlns="http://www.w3.org/2000/svg" xmlns:xlink="http://www.w3.org/1999/xlink" x="0px" y="0px"
	 viewBox="0 0 566.9 566.9" enable-background="new 0 0 566.9 566.9" xml:space="preserve">
<path fill="#FFFFFF" d="M416.4,75.4C362.7,36.3,324.5,37.2,310,39.5c-4.1,0.7-7.5,3-9.9,6.3l-131,180.7L105,315.1
	c-7.9,10.8-12.4,23.7-13.1,37l-8.4,159.4c-0.6,11.5,10.8,19.8,21.5,15.7l149-57c12.6-4.8,23.5-13.2,31.4-24.1l52.3-72.1l142.8-197
	c2.5-3.5,3.5-7.7,2.8-12C480.8,150.2,469.4,114,416.4,75.4z M254.5,438.4l-57.9,22.4c-2.3,0.9-4.8,0.2-6.3-1.8
	c-7.5-9.5-16.3-18.9-30.5-29.2c-14.1-10.3-25.8-15.8-37.1-20c-2.3-0.9-3.7-3-3.6-5.4l3.5-62l15.6-21.4c0,0,34.8-4.8,80.3,28.3
	c45.4,33.1,51.6,67.7,51.6,67.7L254.5,438.4z"/>
</svg>
