<?xml version="1.0" encoding="utf-8"?>
<!-- Generator: Adobe Illustrator 18.1.1, SVG Export Plug-In . SVG Version: 6.00 Build 0)  -->
<svg version="1.1" id="Unread" xmlns="http://www.w3.org/2000/svg" xmlns:xlink="http://www.w3.org/1999/xlink" x="0px" y="0px"
	 viewBox="0 0 566.9 566.9" enable-background="new 0 0 566.9 566.9" xml:space="preserve">
<path fill="#FFFFFF" d="M481.9,85c-31.3,0-56.7,25.4-56.7,56.7s25.4,56.7,56.7,56.7s56.7-25.4,56.7-56.7S513.2,85,481.9,85z
	 M354.3,113.4H42.5c-7.8,0-14.2,6.3-14.2,14.2v28.3c0,7.8,6.3,14.2,14.2,14.2h311.8c7.8,0,14.2-6.3,14.2-14.2v-28.3
	C368.5,119.7,362.2,113.4,354.3,113.4z M354.3,255.1H42.5c-7.8,0-14.2,6.3-14.2,14.2v28.3c0,7.8,6.3,14.2,14.2,14.2h311.8
	c7.8,0,14.2-6.3,14.2-14.2v-28.3C368.5,261.5,362.2,255.1,354.3,255.1z M354.3,396.9H42.5c-7.8,0-14.2,6.3-14.2,14.2v28.3
	c0,7.8,6.3,14.2,14.2,14.2h311.8c7.8,0,14.2-6.3,14.2-14.2V411C368.5,403.2,362.2,396.9,354.3,396.9z"/>
</svg>
